<svg id="svg" version="1.1" xmlns="http://www.w3.org/2000/svg" xmlns:xlink="http://www.w3.org/1999/xlink" width="400" height="400" viewBox="0, 0, 400,400"><g id="svgg"><path id="path0" d="M249.200 199.600 C 248.650 200.247,247.885 200.781,247.500 200.788 C 247.115 200.795,246.800 200.980,246.800 201.200 C 246.800 201.420,246.440 201.600,246.000 201.600 C 245.560 201.600,245.200 201.780,245.200 202.000 C 245.200 202.265,219.211 202.400,168.033 202.400 C 106.675 202.400,90.825 202.502,90.664 202.900 C 90.511 203.278,90.348 203.253,90.000 202.800 C 89.652 202.347,89.489 202.322,89.336 202.700 C 89.191 203.057,87.885 203.200,84.767 203.200 C 82.122 203.200,80.400 203.358,80.400 203.600 C 80.400 203.820,80.040 204.000,79.600 204.000 C 78.907 204.000,78.800 204.267,78.800 206.000 C 78.800 207.100,78.620 208.000,78.400 208.000 C 78.135 208.000,78.000 235.867,78.000 290.800 C 78.000 345.733,78.135 373.600,78.400 373.600 C 78.620 373.600,78.800 374.590,78.800 375.800 C 78.800 377.010,78.980 378.000,79.200 378.000 C 79.420 378.000,79.600 378.818,79.600 379.818 C 79.600 382.965,80.638 383.600,85.782 383.600 C 88.327 383.600,90.000 383.759,90.000 384.000 C 90.000 384.265,118.133 384.400,173.600 384.400 C 229.067 384.400,257.200 384.265,257.200 384.000 C 257.200 383.774,258.333 383.600,259.800 383.600 C 261.267 383.600,262.400 383.426,262.400 383.200 C 262.400 382.978,263.467 382.800,264.800 382.800 C 266.133 382.800,267.200 382.622,267.200 382.400 C 267.200 382.180,267.920 382.000,268.800 382.000 C 269.680 382.000,270.400 381.820,270.400 381.600 C 270.400 381.380,270.720 381.200,271.112 381.200 C 271.503 381.200,272.083 380.840,272.400 380.400 C 272.717 379.960,273.297 379.600,273.688 379.600 C 274.080 379.600,274.400 379.420,274.400 379.200 C 274.400 378.980,274.670 378.800,275.000 378.800 C 275.330 378.800,275.600 378.620,275.600 378.400 C 275.600 378.180,276.140 378.000,276.800 378.000 C 277.460 378.000,278.000 377.820,278.000 377.600 C 278.000 377.380,278.540 377.200,279.200 377.200 C 279.860 377.200,280.400 377.020,280.400 376.800 C 280.400 376.580,280.940 376.400,281.600 376.400 C 282.260 376.400,282.800 376.220,282.800 376.000 C 282.800 375.780,283.340 375.600,284.000 375.600 C 284.660 375.600,285.200 375.431,285.200 375.224 C 285.200 375.018,286.460 374.724,288.000 374.573 C 289.540 374.421,290.800 374.140,290.800 373.948 C 290.800 373.757,291.610 373.600,292.600 373.600 C 293.590 373.600,294.400 373.420,294.400 373.200 C 294.400 372.980,294.720 372.800,295.112 372.800 C 295.503 372.800,296.083 372.440,296.400 372.000 C 296.717 371.560,297.212 371.200,297.499 371.200 C 298.131 371.200,301.600 367.801,301.600 367.182 C 301.600 366.571,302.633 365.600,303.283 365.600 C 303.580 365.600,304.083 365.240,304.400 364.800 C 304.717 364.360,305.257 364.000,305.600 364.000 C 305.943 364.000,306.483 363.640,306.800 363.200 C 307.117 362.760,307.529 362.400,307.714 362.400 C 307.900 362.400,308.929 361.500,310.000 360.400 C 311.071 359.300,312.230 358.400,312.574 358.400 C 312.918 358.400,313.200 358.217,313.200 357.993 C 313.200 357.344,318.321 352.400,318.993 352.400 C 319.327 352.400,319.600 352.116,319.600 351.769 C 319.600 351.421,320.320 350.446,321.200 349.600 C 322.080 348.754,322.800 347.818,322.800 347.520 C 322.800 347.221,323.159 346.718,323.598 346.402 C 324.116 346.028,324.484 345.156,324.649 343.913 C 324.789 342.861,325.060 342.000,325.252 342.000 C 325.443 342.000,325.600 341.730,325.600 341.400 C 325.600 341.070,325.780 340.800,326.000 340.800 C 326.220 340.800,326.400 340.522,326.400 340.183 C 326.400 339.843,327.840 338.141,329.600 336.400 C 331.360 334.659,332.800 332.957,332.800 332.617 C 332.800 332.278,332.980 332.000,333.200 332.000 C 333.420 332.000,333.600 331.640,333.600 331.200 C 333.600 330.760,333.780 330.400,334.000 330.400 C 334.220 330.400,334.400 329.680,334.400 328.800 C 334.400 327.920,334.580 327.200,334.800 327.200 C 335.020 327.200,335.200 326.570,335.200 325.800 C 335.200 325.030,335.380 324.400,335.600 324.400 C 335.820 324.400,336.000 323.680,336.000 322.800 C 336.000 321.920,336.180 321.200,336.400 321.200 C 336.629 321.200,336.800 320.000,336.800 318.400 C 336.800 316.800,336.971 315.600,337.200 315.600 C 337.433 315.600,337.600 314.267,337.600 312.400 C 337.600 310.533,337.767 309.200,338.000 309.200 C 338.239 309.200,338.400 307.667,338.400 305.400 C 338.400 303.133,338.561 301.600,338.800 301.600 C 339.051 301.600,339.200 299.000,339.200 294.600 C 339.200 290.200,339.051 287.600,338.800 287.600 C 338.560 287.600,338.400 286.000,338.400 283.600 C 338.400 281.200,338.240 279.600,338.000 279.600 C 337.774 279.600,337.600 278.467,337.600 277.000 C 337.600 275.533,337.426 274.400,337.200 274.400 C 336.967 274.400,336.800 273.067,336.800 271.200 C 336.800 269.333,336.633 268.000,336.400 268.000 C 336.180 268.000,336.000 267.280,336.000 266.400 C 336.000 265.520,335.820 264.800,335.600 264.800 C 335.380 264.800,335.200 264.080,335.200 263.200 C 335.200 262.320,335.020 261.600,334.800 261.600 C 334.580 261.600,334.400 260.880,334.400 260.000 C 334.400 259.120,334.220 258.400,334.000 258.400 C 333.780 258.400,333.600 257.990,333.600 257.488 C 333.600 256.987,333.240 256.317,332.800 256.000 C 332.360 255.683,332.000 255.103,332.000 254.712 C 332.000 254.320,331.725 254.000,331.389 254.000 C 330.645 254.000,327.200 250.627,327.200 249.899 C 327.200 249.612,326.840 249.117,326.400 248.800 C 325.930 248.461,325.600 247.765,325.600 247.112 C 325.600 246.500,325.436 246.000,325.235 246.000 C 325.034 246.000,324.749 245.280,324.600 244.400 C 324.451 243.520,324.166 242.800,323.965 242.800 C 323.764 242.800,323.600 242.602,323.600 242.360 C 323.600 242.119,323.060 241.417,322.400 240.800 C 321.740 240.183,321.200 239.473,321.200 239.221 C 321.200 238.643,319.379 236.800,318.808 236.800 C 318.256 236.800,314.800 233.354,314.800 232.803 C 314.800 232.147,309.685 227.200,309.007 227.200 C 308.673 227.200,308.400 227.048,308.400 226.861 C 308.400 226.092,306.908 224.887,305.600 224.600 C 304.830 224.431,303.909 223.957,303.553 223.546 C 303.197 223.136,302.689 222.800,302.425 222.800 C 301.822 222.800,300.800 221.804,300.800 221.218 C 300.800 220.599,297.331 217.200,296.699 217.200 C 296.412 217.200,295.917 216.840,295.600 216.400 C 295.261 215.930,294.565 215.600,293.912 215.600 C 293.300 215.600,292.800 215.420,292.800 215.200 C 292.800 214.980,291.990 214.800,291.000 214.800 C 290.010 214.800,289.200 214.620,289.200 214.400 C 289.200 214.180,288.660 214.000,288.000 214.000 C 287.340 214.000,286.800 213.820,286.800 213.600 C 286.800 213.380,286.260 213.200,285.600 213.200 C 284.940 213.200,284.400 213.020,284.400 212.800 C 284.400 212.580,283.860 212.400,283.200 212.400 C 282.540 212.400,282.000 212.220,282.000 212.000 C 282.000 211.780,281.280 211.600,280.400 211.600 C 279.520 211.600,278.800 211.420,278.800 211.200 C 278.800 210.980,278.260 210.800,277.600 210.800 C 276.940 210.800,276.400 210.620,276.400 210.400 C 276.400 210.180,275.950 210.000,275.400 210.000 C 274.850 210.000,274.400 209.820,274.400 209.600 C 274.400 209.380,274.040 209.200,273.600 209.200 C 273.160 209.200,272.800 209.036,272.800 208.835 C 272.800 208.634,272.080 208.349,271.200 208.200 C 270.320 208.051,269.600 207.766,269.600 207.565 C 269.600 207.364,269.280 207.200,268.888 207.200 C 268.497 207.200,267.917 206.840,267.600 206.400 C 267.282 205.959,266.565 205.600,266.000 205.600 C 265.435 205.600,264.718 205.241,264.400 204.800 C 264.061 204.330,263.365 204.000,262.712 204.000 C 262.100 204.000,261.600 203.820,261.600 203.600 C 261.600 203.380,261.240 203.200,260.800 203.200 C 260.360 203.200,260.000 203.020,260.000 202.800 C 260.000 202.580,259.550 202.400,259.000 202.400 C 258.450 202.400,258.000 202.220,258.000 202.000 C 258.000 201.780,257.640 201.600,257.200 201.600 C 256.760 201.600,256.400 201.420,256.400 201.200 C 256.400 200.980,256.040 200.800,255.600 200.800 C 255.160 200.800,254.800 200.620,254.800 200.400 C 254.800 200.180,254.480 200.000,254.088 200.000 C 253.697 200.000,253.117 199.640,252.800 199.200 C 251.961 198.035,250.381 198.211,249.200 199.600 " stroke="none" fill="#d00a32" fill-rule="evenodd"></path><path id="path1" d="M92.700 24.687 C 92.095 24.778,91.600 25.021,91.600 25.227 C 91.600 25.432,91.240 25.600,90.800 25.600 C 90.360 25.600,90.000 25.780,90.000 26.000 C 90.000 26.220,89.460 26.400,88.800 26.400 C 88.140 26.400,87.600 26.580,87.600 26.800 C 87.600 27.020,87.240 27.200,86.800 27.200 C 86.360 27.200,86.000 27.380,86.000 27.600 C 86.000 27.820,85.460 28.000,84.800 28.000 C 84.140 28.000,83.600 28.180,83.600 28.400 C 83.600 28.620,83.317 28.800,82.971 28.800 C 81.110 28.800,81.200 24.545,81.200 112.400 C 81.200 202.097,81.042 196.000,83.371 196.000 C 83.937 196.000,84.400 196.180,84.400 196.400 C 84.400 196.620,84.940 196.800,85.600 196.800 C 86.260 196.800,86.800 196.980,86.800 197.200 C 86.800 197.420,87.700 197.600,88.800 197.600 C 89.900 197.600,90.800 197.780,90.800 198.000 C 90.800 198.220,91.430 198.400,92.200 198.400 C 92.970 198.400,93.600 198.580,93.600 198.800 C 93.600 199.065,118.733 199.200,168.200 199.200 C 217.667 199.200,242.800 199.065,242.800 198.800 C 242.800 198.580,243.083 198.400,243.429 198.400 C 244.237 198.400,245.200 197.437,245.200 196.629 C 245.200 196.283,245.380 196.000,245.600 196.000 C 245.865 196.000,246.000 168.000,246.000 112.800 C 246.000 57.600,245.865 29.600,245.600 29.600 C 245.380 29.600,245.200 28.880,245.200 28.000 C 245.200 27.120,245.020 26.400,244.800 26.400 C 244.580 26.400,244.400 25.950,244.400 25.400 L 244.400 24.400 169.100 24.460 C 127.685 24.493,93.305 24.595,92.700 24.687 " stroke="none" fill="#097cb4" fill-rule="evenodd"></path><path id="path2" d="M0.000 200.000 L 0.000 400.000 200.000 400.000 L 400.000 400.000 400.000 200.000 L 400.000 0.000 200.000 0.000 L 0.000 0.000 0.000 200.000 M106.567 12.900 C 106.753 13.300,106.847 13.300,107.033 12.900 C 107.311 12.304,110.800 12.212,110.800 12.800 C 110.800 13.065,133.733 13.200,178.800 13.200 C 223.867 13.200,246.800 13.335,246.800 13.600 C 246.800 13.820,247.160 14.000,247.600 14.000 C 248.040 14.000,248.400 14.180,248.400 14.400 C 248.400 14.620,248.900 14.800,249.512 14.800 C 250.165 14.800,250.861 15.130,251.200 15.600 C 251.819 16.459,255.600 16.803,255.600 16.000 C 255.600 15.780,256.230 15.600,257.000 15.600 C 257.770 15.600,258.400 15.780,258.400 16.000 C 258.400 16.229,259.600 16.400,261.200 16.400 C 262.800 16.400,264.000 16.571,264.000 16.800 C 264.000 17.022,265.067 17.200,266.400 17.200 C 267.733 17.200,268.800 17.378,268.800 17.600 C 268.800 17.820,269.160 18.000,269.600 18.000 C 270.040 18.000,270.400 18.180,270.400 18.400 C 270.400 18.620,270.720 18.800,271.112 18.800 C 271.503 18.800,272.083 19.160,272.400 19.600 C 272.717 20.040,273.297 20.400,273.688 20.400 C 274.080 20.400,274.400 20.580,274.400 20.800 C 274.400 21.020,274.670 21.200,275.000 21.200 C 275.330 21.200,275.600 21.380,275.600 21.600 C 275.600 21.820,276.140 22.000,276.800 22.000 C 277.460 22.000,278.000 22.180,278.000 22.400 C 278.000 22.620,278.540 22.800,279.200 22.800 C 279.860 22.800,280.400 22.980,280.400 23.200 C 280.400 23.420,280.940 23.600,281.600 23.600 C 282.260 23.600,282.800 23.762,282.800 23.961 C 282.800 24.159,283.880 24.447,285.200 24.600 C 286.520 24.753,287.600 25.041,287.600 25.239 C 287.600 25.438,287.960 25.600,288.400 25.600 C 288.840 25.600,289.200 25.780,289.200 26.000 C 289.200 26.220,289.740 26.400,290.400 26.400 C 291.060 26.400,291.600 26.580,291.600 26.800 C 291.600 27.020,291.870 27.200,292.200 27.200 C 292.530 27.200,292.800 27.380,292.800 27.600 C 292.800 27.820,293.076 28.000,293.413 28.000 C 293.750 28.000,295.994 29.980,298.400 32.400 C 300.806 34.820,303.010 36.800,303.299 36.800 C 303.587 36.800,304.083 37.160,304.400 37.600 C 304.717 38.040,305.297 38.400,305.688 38.400 C 306.080 38.400,306.400 38.580,306.400 38.800 C 306.400 39.020,306.760 39.200,307.200 39.200 C 307.640 39.200,308.000 39.372,308.000 39.582 C 308.000 40.013,309.457 41.502,310.745 42.388 C 311.215 42.712,311.600 43.297,311.600 43.688 C 311.600 44.080,311.780 44.400,312.000 44.400 C 312.220 44.400,312.400 44.688,312.400 45.040 C 312.400 45.391,312.940 46.183,313.600 46.800 C 314.260 47.417,314.800 48.126,314.800 48.376 C 314.800 48.626,316.420 50.437,318.400 52.400 C 320.380 54.363,322.000 56.246,322.000 56.585 C 322.000 56.923,322.180 57.200,322.400 57.200 C 322.620 57.200,322.800 57.470,322.800 57.800 C 322.800 58.130,322.980 58.400,323.200 58.400 C 323.420 58.400,323.600 58.760,323.600 59.200 C 323.600 59.640,323.774 60.000,323.986 60.000 C 324.199 60.000,324.492 60.900,324.638 62.000 C 324.784 63.100,325.060 64.000,325.252 64.000 C 325.443 64.000,325.600 64.540,325.600 65.200 C 325.600 65.860,325.780 66.400,326.000 66.400 C 326.220 66.400,326.400 66.940,326.400 67.600 C 326.400 68.260,326.580 68.800,326.800 68.800 C 327.020 68.800,327.200 69.340,327.200 70.000 C 327.200 70.660,327.380 71.200,327.600 71.200 C 327.820 71.200,328.000 71.740,328.000 72.400 C 328.000 73.060,328.180 73.600,328.400 73.600 C 328.620 73.600,328.800 73.870,328.800 74.200 C 328.800 74.530,328.980 74.800,329.200 74.800 C 329.420 74.800,329.600 75.160,329.600 75.600 C 329.600 76.040,329.780 76.400,330.000 76.400 C 330.220 76.400,330.400 76.688,330.400 77.040 C 330.400 77.391,330.940 78.183,331.600 78.800 C 332.260 79.417,332.800 80.209,332.800 80.560 C 332.800 80.912,332.980 81.200,333.200 81.200 C 333.420 81.200,333.600 81.560,333.600 82.000 C 333.600 82.440,333.780 82.800,334.000 82.800 C 334.220 82.800,334.400 83.340,334.400 84.000 C 334.400 84.660,334.580 85.200,334.800 85.200 C 335.020 85.200,335.200 85.920,335.200 86.800 C 335.200 87.680,335.380 88.400,335.600 88.400 C 335.820 88.400,336.000 89.210,336.000 90.200 C 336.000 91.190,336.180 92.000,336.400 92.000 C 336.640 92.000,336.800 93.600,336.800 96.000 C 336.800 98.400,336.960 100.000,337.200 100.000 C 337.456 100.000,337.600 103.667,337.600 110.200 C 337.600 116.733,337.456 120.400,337.200 120.400 C 336.969 120.400,336.800 121.667,336.800 123.400 C 336.800 125.133,336.631 126.400,336.400 126.400 C 336.180 126.400,336.000 127.300,336.000 128.400 C 336.000 129.500,335.820 130.400,335.600 130.400 C 335.380 130.400,335.200 131.120,335.200 132.000 C 335.200 132.880,335.020 133.600,334.800 133.600 C 334.580 133.600,334.400 133.960,334.400 134.400 C 334.400 134.840,334.220 135.200,334.000 135.200 C 333.780 135.200,333.600 135.560,333.600 136.000 C 333.600 136.440,333.420 136.800,333.200 136.800 C 332.980 136.800,332.800 137.160,332.800 137.600 C 332.800 138.040,332.620 138.400,332.400 138.400 C 332.180 138.400,332.000 138.760,332.000 139.200 C 332.000 139.640,331.820 140.000,331.600 140.000 C 331.380 140.000,331.200 140.360,331.200 140.800 C 331.200 141.240,331.020 141.600,330.800 141.600 C 330.580 141.600,330.400 141.870,330.400 142.200 C 330.400 142.530,330.220 142.800,330.000 142.800 C 329.780 142.800,329.600 143.160,329.600 143.600 C 329.600 144.040,329.420 144.400,329.200 144.400 C 328.980 144.400,328.800 144.940,328.800 145.600 C 328.800 146.260,328.620 146.800,328.400 146.800 C 328.180 146.800,328.000 147.160,328.000 147.600 C 328.000 148.040,327.820 148.400,327.600 148.400 C 327.380 148.400,327.200 148.940,327.200 149.600 C 327.200 150.260,327.020 150.800,326.800 150.800 C 326.580 150.800,326.400 151.340,326.400 152.000 C 326.400 152.660,326.220 153.200,326.000 153.200 C 325.780 153.200,325.600 153.920,325.600 154.800 C 325.600 155.680,325.440 156.400,325.245 156.400 C 325.049 156.400,324.771 157.030,324.626 157.800 C 324.482 158.570,324.192 159.200,323.982 159.200 C 323.772 159.200,323.600 159.477,323.600 159.815 C 323.600 160.154,321.980 162.037,320.000 164.000 C 318.020 165.963,316.400 167.806,316.400 168.096 C 316.400 168.386,316.040 168.883,315.600 169.200 C 315.160 169.517,314.800 170.097,314.800 170.488 C 314.800 170.880,314.620 171.200,314.400 171.200 C 314.180 171.200,314.000 171.520,314.000 171.912 C 314.000 172.303,313.640 172.883,313.200 173.200 C 312.760 173.517,312.400 173.923,312.400 174.102 C 312.400 174.680,309.646 177.200,309.013 177.200 C 308.676 177.200,308.400 177.352,308.400 177.539 C 308.400 178.081,306.951 179.600,306.435 179.600 C 305.846 179.600,304.000 181.414,304.000 181.992 C 304.000 182.604,300.525 186.000,299.899 186.000 C 299.612 186.000,299.117 186.360,298.800 186.800 C 298.483 187.240,297.903 187.600,297.512 187.600 C 297.120 187.600,296.800 187.780,296.800 188.000 C 296.800 188.220,296.440 188.400,296.000 188.400 C 295.560 188.400,295.200 188.580,295.200 188.800 C 295.200 189.020,294.840 189.200,294.400 189.200 C 293.960 189.200,293.600 189.380,293.600 189.600 C 293.600 189.820,293.240 190.000,292.800 190.000 C 292.360 190.000,292.000 190.180,292.000 190.400 C 292.000 190.620,291.730 190.800,291.400 190.800 C 291.070 190.800,290.800 190.980,290.800 191.200 C 290.800 191.420,290.453 191.600,290.029 191.600 C 289.604 191.600,288.987 191.870,288.657 192.200 C 288.327 192.530,287.851 192.800,287.600 192.800 C 286.811 192.800,286.000 193.901,286.000 194.971 C 286.000 195.537,285.820 196.000,285.600 196.000 C 285.380 196.000,285.200 196.540,285.200 197.200 C 285.200 197.860,285.020 198.400,284.800 198.400 C 284.580 198.400,284.400 198.760,284.400 199.200 C 284.400 199.640,284.220 200.000,284.000 200.000 C 283.780 200.000,283.600 200.540,283.600 201.200 C 283.600 201.860,283.420 202.400,283.200 202.400 C 282.980 202.400,282.800 202.720,282.800 203.112 C 282.800 203.503,282.440 204.083,282.000 204.400 C 281.560 204.717,281.200 205.297,281.200 205.688 C 281.200 206.080,281.020 206.400,280.800 206.400 C 280.580 206.400,280.400 206.580,280.400 206.800 C 280.400 207.020,280.760 207.200,281.200 207.200 C 281.640 207.200,282.000 207.364,282.000 207.565 C 282.000 207.766,282.720 208.051,283.600 208.200 C 284.480 208.349,285.200 208.634,285.200 208.835 C 285.200 209.036,285.740 209.200,286.400 209.200 C 287.060 209.200,287.600 209.380,287.600 209.600 C 287.600 209.820,288.140 210.000,288.800 210.000 C 289.460 210.000,290.000 210.180,290.000 210.400 C 290.000 210.620,290.450 210.800,291.000 210.800 C 291.550 210.800,292.000 210.980,292.000 211.200 C 292.000 211.420,292.540 211.600,293.200 211.600 C 293.860 211.600,294.400 211.780,294.400 212.000 C 294.400 212.220,294.760 212.400,295.200 212.400 C 295.640 212.400,296.000 212.580,296.000 212.800 C 296.000 213.020,296.500 213.200,297.112 213.200 C 297.765 213.200,298.461 213.530,298.800 214.000 C 299.117 214.440,299.615 214.800,299.905 214.800 C 300.196 214.800,301.859 216.240,303.600 218.000 C 305.341 219.760,307.031 221.200,307.356 221.200 C 307.681 221.200,308.060 221.560,308.200 222.000 C 308.340 222.440,308.762 222.800,309.139 222.800 C 309.515 222.800,310.083 223.160,310.400 223.600 C 310.717 224.040,311.289 224.400,311.671 224.400 C 312.534 224.400,318.800 230.538,318.800 231.383 C 318.800 231.722,319.074 232.000,319.409 232.000 C 320.300 232.000,324.233 236.081,324.547 237.330 C 324.694 237.919,324.992 238.400,325.208 238.400 C 325.423 238.400,325.600 238.720,325.600 239.112 C 325.600 239.503,325.960 240.083,326.400 240.400 C 326.840 240.717,327.200 241.207,327.200 241.488 C 327.200 241.770,327.380 242.000,327.600 242.000 C 327.820 242.000,328.000 242.500,328.000 243.112 C 328.000 243.765,328.330 244.461,328.800 244.800 C 329.240 245.117,329.600 245.617,329.600 245.910 C 329.600 246.204,330.680 247.504,332.000 248.800 C 333.320 250.096,334.400 251.396,334.400 251.690 C 334.400 251.983,334.760 252.483,335.200 252.800 C 335.640 253.117,336.000 253.697,336.000 254.088 C 336.000 254.480,336.180 254.800,336.400 254.800 C 336.620 254.800,336.800 255.160,336.800 255.600 C 336.800 256.040,336.980 256.400,337.200 256.400 C 337.420 256.400,337.600 257.030,337.600 257.800 C 337.600 258.570,337.780 259.200,338.000 259.200 C 338.220 259.200,338.400 260.100,338.400 261.200 C 338.400 262.300,338.580 263.200,338.800 263.200 C 339.020 263.200,339.200 264.100,339.200 265.200 C 339.200 266.300,339.380 267.200,339.600 267.200 C 339.820 267.200,340.000 268.100,340.000 269.200 C 340.000 270.300,340.180 271.200,340.400 271.200 C 340.620 271.200,340.800 272.190,340.800 273.400 C 340.800 274.610,340.965 275.600,341.166 275.600 C 341.368 275.600,341.661 277.580,341.818 280.000 C 341.975 282.420,342.260 284.400,342.451 284.400 C 342.643 284.400,342.800 285.840,342.800 287.600 C 342.800 289.467,342.967 290.800,343.200 290.800 C 343.439 290.800,343.600 292.333,343.600 294.600 C 343.600 296.867,343.439 298.400,343.200 298.400 C 342.963 298.400,342.800 299.867,342.800 302.000 C 342.800 303.980,342.637 305.600,342.437 305.600 C 342.238 305.600,341.946 307.310,341.790 309.400 C 341.633 311.490,341.346 313.200,341.152 313.200 C 340.959 313.200,340.800 314.280,340.800 315.600 C 340.800 316.933,340.622 318.000,340.400 318.000 C 340.180 318.000,340.000 318.900,340.000 320.000 C 340.000 321.100,339.820 322.000,339.600 322.000 C 339.380 322.000,339.200 322.810,339.200 323.800 C 339.200 324.790,339.020 325.600,338.800 325.600 C 338.580 325.600,338.400 326.500,338.400 327.600 C 338.400 328.700,338.220 329.600,338.000 329.600 C 337.780 329.600,337.600 330.140,337.600 330.800 C 337.600 331.460,337.420 332.000,337.200 332.000 C 336.980 332.000,336.800 332.500,336.800 333.112 C 336.800 333.765,336.470 334.461,336.000 334.800 C 335.560 335.117,335.200 335.617,335.200 335.910 C 335.200 336.204,334.120 337.504,332.800 338.800 C 331.480 340.096,330.400 341.306,330.400 341.490 C 330.400 341.673,330.040 342.083,329.600 342.400 C 329.160 342.717,328.800 343.297,328.800 343.688 C 328.800 344.080,328.620 344.400,328.400 344.400 C 328.180 344.400,328.000 344.760,328.000 345.200 C 328.000 345.640,327.820 346.000,327.600 346.000 C 327.380 346.000,327.200 346.360,327.200 346.800 C 327.200 347.240,327.020 347.600,326.800 347.600 C 326.580 347.600,326.400 347.960,326.400 348.400 C 326.400 348.840,326.220 349.200,326.000 349.200 C 325.780 349.200,325.600 349.478,325.600 349.817 C 325.600 350.394,325.344 350.798,324.100 352.185 C 323.825 352.492,323.589 352.981,323.576 353.271 C 323.563 353.562,322.478 354.790,321.165 356.000 C 319.853 357.210,317.617 359.325,316.197 360.700 C 314.777 362.075,313.414 363.200,313.168 363.200 C 312.922 363.200,312.217 363.740,311.600 364.400 C 310.983 365.060,310.231 365.600,309.928 365.600 C 309.625 365.600,309.117 365.960,308.800 366.400 C 308.483 366.840,308.075 367.200,307.895 367.200 C 307.714 367.200,306.141 368.640,304.400 370.400 C 302.659 372.160,300.957 373.600,300.617 373.600 C 300.278 373.600,300.000 373.764,300.000 373.965 C 300.000 374.166,299.280 374.451,298.400 374.600 C 297.520 374.749,296.800 375.034,296.800 375.235 C 296.800 375.436,296.440 375.600,296.000 375.600 C 295.560 375.600,295.200 375.780,295.200 376.000 C 295.200 376.220,294.660 376.400,294.000 376.400 C 293.340 376.400,292.800 376.580,292.800 376.800 C 292.800 377.020,292.350 377.200,291.800 377.200 C 291.250 377.200,290.800 377.380,290.800 377.600 C 290.800 377.820,290.260 378.000,289.600 378.000 C 288.940 378.000,288.400 378.180,288.400 378.400 C 288.400 378.620,287.860 378.800,287.200 378.800 C 286.540 378.800,286.000 378.980,286.000 379.200 C 286.000 379.420,285.640 379.600,285.200 379.600 C 284.760 379.600,284.400 379.780,284.400 380.000 C 284.400 380.220,283.860 380.400,283.200 380.400 C 282.540 380.400,282.000 380.580,282.000 380.800 C 282.000 381.020,281.680 381.200,281.288 381.200 C 280.897 381.200,280.317 381.560,280.000 382.000 C 279.683 382.440,279.103 382.800,278.712 382.800 C 278.320 382.800,278.000 382.980,278.000 383.200 C 278.000 383.420,277.640 383.600,277.200 383.600 C 276.760 383.600,276.400 383.780,276.400 384.000 C 276.400 384.220,275.950 384.400,275.400 384.400 C 274.850 384.400,274.400 384.580,274.400 384.800 C 274.400 385.020,273.860 385.200,273.200 385.200 C 272.540 385.200,272.000 385.380,272.000 385.600 C 272.000 385.820,271.460 386.000,270.800 386.000 C 270.140 386.000,269.600 386.180,269.600 386.400 C 269.600 386.633,268.267 386.800,266.400 386.800 C 264.533 386.800,263.200 386.967,263.200 387.200 C 263.200 387.465,232.600 387.600,172.200 387.600 C 111.800 387.600,81.200 387.465,81.200 387.200 C 81.200 386.980,80.925 386.800,80.589 386.800 C 79.796 386.800,76.400 383.404,76.400 382.611 C 76.400 382.275,76.220 382.000,76.000 382.000 C 75.771 382.000,75.600 380.800,75.600 379.200 C 75.600 377.600,75.429 376.400,75.200 376.400 C 74.935 376.400,74.800 348.133,74.800 292.400 C 74.800 236.667,74.935 208.400,75.200 208.400 C 75.443 208.400,75.600 206.600,75.600 203.800 C 75.600 201.000,75.443 199.200,75.200 199.200 C 74.935 199.200,74.800 169.667,74.800 111.400 C 74.800 53.133,74.935 23.600,75.200 23.600 C 75.422 23.600,75.600 22.533,75.600 21.200 C 75.600 19.867,75.778 18.800,76.000 18.800 C 76.220 18.800,76.400 18.525,76.400 18.189 C 76.400 17.396,79.796 14.000,80.589 14.000 C 80.925 14.000,81.200 13.820,81.200 13.600 C 81.200 13.349,83.667 13.200,87.800 13.200 C 91.933 13.200,94.400 13.051,94.400 12.800 C 94.400 12.172,106.272 12.270,106.567 12.900 " stroke="none" fill="#fcfcfb" fill-rule="evenodd"></path><path id="path3" d="M255.600 16.000 C 255.600 16.220,254.880 16.400,254.000 16.400 C 253.120 16.400,252.400 16.580,252.400 16.800 C 252.400 17.020,252.580 17.200,252.800 17.200 C 253.020 17.200,253.200 17.920,253.200 18.800 C 253.200 19.680,253.020 20.400,252.800 20.400 C 252.535 20.400,252.400 49.667,252.400 107.400 C 252.400 165.133,252.265 194.400,252.000 194.400 C 251.780 194.400,251.600 194.940,251.600 195.600 C 251.600 196.260,251.420 196.800,251.200 196.800 C 250.980 196.800,250.800 197.160,250.800 197.600 C 250.800 198.100,251.067 198.400,251.512 198.400 C 251.903 198.400,252.483 198.760,252.800 199.200 C 253.117 199.640,253.697 200.000,254.088 200.000 C 254.480 200.000,254.800 200.180,254.800 200.400 C 254.800 200.620,255.160 200.800,255.600 200.800 C 256.040 200.800,256.400 200.980,256.400 201.200 C 256.400 201.420,256.760 201.600,257.200 201.600 C 257.640 201.600,258.000 201.780,258.000 202.000 C 258.000 202.220,258.450 202.400,259.000 202.400 C 259.550 202.400,260.000 202.580,260.000 202.800 C 260.000 203.020,260.360 203.200,260.800 203.200 C 261.240 203.200,261.600 203.380,261.600 203.600 C 261.600 203.820,262.100 204.000,262.712 204.000 C 263.365 204.000,264.061 204.330,264.400 204.800 C 264.718 205.241,265.435 205.600,266.000 205.600 C 266.565 205.600,267.282 205.959,267.600 206.400 C 267.917 206.840,268.497 207.200,268.888 207.200 C 269.280 207.200,269.600 207.364,269.600 207.565 C 269.600 207.766,270.320 208.051,271.200 208.200 C 272.080 208.349,272.800 208.634,272.800 208.835 C 272.800 209.036,273.160 209.200,273.600 209.200 C 274.040 209.200,274.400 209.380,274.400 209.600 C 274.400 209.820,274.850 210.000,275.400 210.000 C 275.950 210.000,276.400 210.180,276.400 210.400 C 276.400 210.620,276.940 210.800,277.600 210.800 C 278.260 210.800,278.800 210.980,278.800 211.200 C 278.800 211.420,279.520 211.600,280.400 211.600 C 281.280 211.600,282.000 211.780,282.000 212.000 C 282.000 212.220,282.540 212.400,283.200 212.400 C 283.860 212.400,284.400 212.580,284.400 212.800 C 284.400 213.020,284.940 213.200,285.600 213.200 C 286.260 213.200,286.800 213.380,286.800 213.600 C 286.800 213.820,287.340 214.000,288.000 214.000 C 288.660 214.000,289.200 214.180,289.200 214.400 C 289.200 214.620,290.010 214.800,291.000 214.800 C 291.990 214.800,292.800 214.980,292.800 215.200 C 292.800 215.420,293.300 215.600,293.912 215.600 C 294.565 215.600,295.261 215.930,295.600 216.400 C 295.917 216.840,296.412 217.200,296.699 217.200 C 297.331 217.200,300.800 220.599,300.800 221.218 C 300.800 221.804,301.822 222.800,302.425 222.800 C 302.689 222.800,303.197 223.136,303.553 223.546 C 303.909 223.957,304.830 224.431,305.600 224.600 C 306.908 224.887,308.400 226.092,308.400 226.861 C 308.400 227.048,308.673 227.200,309.007 227.200 C 309.685 227.200,314.800 232.147,314.800 232.803 C 314.800 233.354,318.256 236.800,318.808 236.800 C 319.379 236.800,321.200 238.643,321.200 239.221 C 321.200 239.473,321.740 240.183,322.400 240.800 C 323.060 241.417,323.600 242.119,323.600 242.360 C 323.600 242.602,323.764 242.800,323.965 242.800 C 324.166 242.800,324.451 243.520,324.600 244.400 C 324.749 245.280,325.034 246.000,325.235 246.000 C 325.436 246.000,325.600 246.500,325.600 247.112 C 325.600 247.765,325.930 248.461,326.400 248.800 C 326.840 249.117,327.200 249.612,327.200 249.899 C 327.200 250.627,330.645 254.000,331.389 254.000 C 331.725 254.000,332.000 254.320,332.000 254.712 C 332.000 255.103,332.360 255.683,332.800 256.000 C 333.240 256.317,333.600 256.987,333.600 257.488 C 333.600 257.990,333.780 258.400,334.000 258.400 C 334.220 258.400,334.400 259.120,334.400 260.000 C 334.400 260.880,334.580 261.600,334.800 261.600 C 335.020 261.600,335.200 262.320,335.200 263.200 C 335.200 264.080,335.380 264.800,335.600 264.800 C 335.820 264.800,336.000 265.520,336.000 266.400 C 336.000 267.280,336.180 268.000,336.400 268.000 C 336.633 268.000,336.800 269.333,336.800 271.200 C 336.800 273.067,336.967 274.400,337.200 274.400 C 337.426 274.400,337.600 275.533,337.600 277.000 C 337.600 278.467,337.774 279.600,338.000 279.600 C 338.240 279.600,338.400 281.200,338.400 283.600 C 338.400 286.000,338.560 287.600,338.800 287.600 C 339.051 287.600,339.200 290.200,339.200 294.600 C 339.200 299.000,339.051 301.600,338.800 301.600 C 338.561 301.600,338.400 303.133,338.400 305.400 C 338.400 307.667,338.239 309.200,338.000 309.200 C 337.767 309.200,337.600 310.533,337.600 312.400 C 337.600 314.267,337.433 315.600,337.200 315.600 C 336.971 315.600,336.800 316.800,336.800 318.400 C 336.800 320.000,336.629 321.200,336.400 321.200 C 336.180 321.200,336.000 321.920,336.000 322.800 C 336.000 323.680,335.820 324.400,335.600 324.400 C 335.380 324.400,335.200 325.030,335.200 325.800 C 335.200 326.570,335.020 327.200,334.800 327.200 C 334.580 327.200,334.400 327.920,334.400 328.800 C 334.400 329.680,334.220 330.400,334.000 330.400 C 333.780 330.400,333.600 330.760,333.600 331.200 C 333.600 331.640,333.420 332.000,333.200 332.000 C 332.980 332.000,332.800 332.278,332.800 332.617 C 332.800 332.957,331.360 334.659,329.600 336.400 C 327.840 338.141,326.400 339.843,326.400 340.183 C 326.400 340.522,326.220 340.800,326.000 340.800 C 325.780 340.800,325.600 341.070,325.600 341.400 C 325.600 341.730,325.443 342.000,325.252 342.000 C 325.060 342.000,324.789 342.861,324.649 343.913 C 324.484 345.156,324.116 346.028,323.598 346.402 C 323.159 346.718,322.800 347.221,322.800 347.520 C 322.800 347.818,322.080 348.754,321.200 349.600 C 320.320 350.446,319.600 351.421,319.600 351.769 C 319.600 352.116,319.327 352.400,318.993 352.400 C 318.321 352.400,313.200 357.344,313.200 357.993 C 313.200 358.217,312.918 358.400,312.574 358.400 C 312.230 358.400,311.071 359.300,310.000 360.400 C 308.929 361.500,307.900 362.400,307.714 362.400 C 307.529 362.400,307.117 362.760,306.800 363.200 C 306.483 363.640,305.943 364.000,305.600 364.000 C 305.257 364.000,304.717 364.360,304.400 364.800 C 304.083 365.240,303.580 365.600,303.283 365.600 C 302.633 365.600,301.600 366.571,301.600 367.182 C 301.600 367.801,298.131 371.200,297.499 371.200 C 297.212 371.200,296.717 371.560,296.400 372.000 C 296.083 372.440,295.503 372.800,295.112 372.800 C 294.720 372.800,294.400 372.980,294.400 373.200 C 294.400 373.420,293.590 373.600,292.600 373.600 C 291.610 373.600,290.800 373.757,290.800 373.948 C 290.800 374.140,289.540 374.421,288.000 374.573 C 286.460 374.724,285.200 375.018,285.200 375.224 C 285.200 375.431,284.660 375.600,284.000 375.600 C 283.340 375.600,282.800 375.780,282.800 376.000 C 282.800 376.220,282.260 376.400,281.600 376.400 C 280.940 376.400,280.400 376.580,280.400 376.800 C 280.400 377.020,279.860 377.200,279.200 377.200 C 278.540 377.200,278.000 377.380,278.000 377.600 C 278.000 377.820,277.460 378.000,276.800 378.000 C 276.140 378.000,275.600 378.180,275.600 378.400 C 275.600 378.620,275.330 378.800,275.000 378.800 C 274.670 378.800,274.400 378.980,274.400 379.200 C 274.400 379.420,274.080 379.600,273.688 379.600 C 273.297 379.600,272.717 379.960,272.400 380.400 C 272.083 380.840,271.503 381.200,271.112 381.200 C 270.720 381.200,270.400 381.380,270.400 381.600 C 270.400 381.820,269.680 382.000,268.800 382.000 C 267.920 382.000,267.200 382.180,267.200 382.400 C 267.200 382.622,266.133 382.800,264.800 382.800 C 263.467 382.800,262.400 382.978,262.400 383.200 C 262.400 383.426,261.267 383.600,259.800 383.600 C 258.333 383.600,257.200 383.774,257.200 384.000 C 257.200 384.265,229.067 384.400,173.600 384.400 C 118.133 384.400,90.000 384.265,90.000 384.000 C 90.000 383.759,88.327 383.600,85.782 383.600 C 80.638 383.600,79.600 382.965,79.600 379.818 C 79.600 378.818,79.420 378.000,79.200 378.000 C 78.980 378.000,78.800 377.010,78.800 375.800 C 78.800 374.590,78.620 373.600,78.400 373.600 C 78.135 373.600,78.000 345.733,78.000 290.800 C 78.000 235.867,78.135 208.000,78.400 208.000 C 78.620 208.000,78.800 207.100,78.800 206.000 L 78.800 204.000 77.200 204.000 L 75.600 204.000 75.600 206.200 C 75.600 207.410,75.420 208.400,75.200 208.400 C 74.935 208.400,74.800 236.667,74.800 292.400 C 74.800 348.133,74.935 376.400,75.200 376.400 C 75.429 376.400,75.600 377.600,75.600 379.200 C 75.600 380.800,75.771 382.000,76.000 382.000 C 76.220 382.000,76.400 382.275,76.400 382.611 C 76.400 383.404,79.796 386.800,80.589 386.800 C 80.925 386.800,81.200 386.980,81.200 387.200 C 81.200 387.465,111.800 387.600,172.200 387.600 C 232.600 387.600,263.200 387.465,263.200 387.200 C 263.200 386.967,264.533 386.800,266.400 386.800 C 268.267 386.800,269.600 386.633,269.600 386.400 C 269.600 386.180,270.140 386.000,270.800 386.000 C 271.460 386.000,272.000 385.820,272.000 385.600 C 272.000 385.380,272.540 385.200,273.200 385.200 C 273.860 385.200,274.400 385.020,274.400 384.800 C 274.400 384.580,274.850 384.400,275.400 384.400 C 275.950 384.400,276.400 384.220,276.400 384.000 C 276.400 383.780,276.760 383.600,277.200 383.600 C 277.640 383.600,278.000 383.420,278.000 383.200 C 278.000 382.980,278.320 382.800,278.712 382.800 C 279.103 382.800,279.683 382.440,280.000 382.000 C 280.317 381.560,280.897 381.200,281.288 381.200 C 281.680 381.200,282.000 381.020,282.000 380.800 C 282.000 380.580,282.540 380.400,283.200 380.400 C 283.860 380.400,284.400 380.220,284.400 380.000 C 284.400 379.780,284.760 379.600,285.200 379.600 C 285.640 379.600,286.000 379.420,286.000 379.200 C 286.000 378.980,286.540 378.800,287.200 378.800 C 287.860 378.800,288.400 378.620,288.400 378.400 C 288.400 378.180,288.940 378.000,289.600 378.000 C 290.260 378.000,290.800 377.820,290.800 377.600 C 290.800 377.380,291.250 377.200,291.800 377.200 C 292.350 377.200,292.800 377.020,292.800 376.800 C 292.800 376.580,293.340 376.400,294.000 376.400 C 294.660 376.400,295.200 376.220,295.200 376.000 C 295.200 375.780,295.560 375.600,296.000 375.600 C 296.440 375.600,296.800 375.436,296.800 375.235 C 296.800 375.034,297.520 374.749,298.400 374.600 C 299.280 374.451,300.000 374.166,300.000 373.965 C 300.000 373.764,300.278 373.600,300.617 373.600 C 300.957 373.600,302.659 372.160,304.400 370.400 C 306.141 368.640,307.714 367.200,307.895 367.200 C 308.075 367.200,308.483 366.840,308.800 366.400 C 309.117 365.960,309.625 365.600,309.928 365.600 C 310.231 365.600,310.983 365.060,311.600 364.400 C 312.217 363.740,312.922 363.200,313.168 363.200 C 313.414 363.200,314.777 362.075,316.197 360.700 C 317.617 359.325,319.853 357.210,321.165 356.000 C 322.478 354.790,323.563 353.562,323.576 353.271 C 323.589 352.981,323.825 352.492,324.100 352.185 C 325.344 350.798,325.600 350.394,325.600 349.817 C 325.600 349.478,325.780 349.200,326.000 349.200 C 326.220 349.200,326.400 348.840,326.400 348.400 C 326.400 347.960,326.580 347.600,326.800 347.600 C 327.020 347.600,327.200 347.240,327.200 346.800 C 327.200 346.360,327.380 346.000,327.600 346.000 C 327.820 346.000,328.000 345.640,328.000 345.200 C 328.000 344.760,328.180 344.400,328.400 344.400 C 328.620 344.400,328.800 344.080,328.800 343.688 C 328.800 343.297,329.160 342.717,329.600 342.400 C 330.040 342.083,330.400 341.673,330.400 341.490 C 330.400 341.306,331.480 340.096,332.800 338.800 C 334.120 337.504,335.200 336.204,335.200 335.910 C 335.200 335.617,335.560 335.117,336.000 334.800 C 336.470 334.461,336.800 333.765,336.800 333.112 C 336.800 332.500,336.980 332.000,337.200 332.000 C 337.420 332.000,337.600 331.460,337.600 330.800 C 337.600 330.140,337.780 329.600,338.000 329.600 C 338.220 329.600,338.400 328.700,338.400 327.600 C 338.400 326.500,338.580 325.600,338.800 325.600 C 339.020 325.600,339.200 324.790,339.200 323.800 C 339.200 322.810,339.380 322.000,339.600 322.000 C 339.820 322.000,340.000 321.100,340.000 320.000 C 340.000 318.900,340.180 318.000,340.400 318.000 C 340.622 318.000,340.800 316.933,340.800 315.600 C 340.800 314.280,340.959 313.200,341.152 313.200 C 341.346 313.200,341.633 311.490,341.790 309.400 C 341.946 307.310,342.238 305.600,342.437 305.600 C 342.637 305.600,342.800 303.980,342.800 302.000 C 342.800 299.867,342.963 298.400,343.200 298.400 C 343.439 298.400,343.600 296.867,343.600 294.600 C 343.600 292.333,343.439 290.800,343.200 290.800 C 342.967 290.800,342.800 289.467,342.800 287.600 C 342.800 285.840,342.643 284.400,342.451 284.400 C 342.260 284.400,341.975 282.420,341.818 280.000 C 341.661 277.580,341.368 275.600,341.166 275.600 C 340.965 275.600,340.800 274.610,340.800 273.400 C 340.800 272.190,340.620 271.200,340.400 271.200 C 340.180 271.200,340.000 270.300,340.000 269.200 C 340.000 268.100,339.820 267.200,339.600 267.200 C 339.380 267.200,339.200 266.300,339.200 265.200 C 339.200 264.100,339.020 263.200,338.800 263.200 C 338.580 263.200,338.400 262.300,338.400 261.200 C 338.400 260.100,338.220 259.200,338.000 259.200 C 337.780 259.200,337.600 258.570,337.600 257.800 C 337.600 257.030,337.420 256.400,337.200 256.400 C 336.980 256.400,336.800 256.040,336.800 255.600 C 336.800 255.160,336.620 254.800,336.400 254.800 C 336.180 254.800,336.000 254.480,336.000 254.088 C 336.000 253.697,335.640 253.117,335.200 252.800 C 334.760 252.483,334.400 251.983,334.400 251.690 C 334.400 251.396,333.320 250.096,332.000 248.800 C 330.680 247.504,329.600 246.204,329.600 245.910 C 329.600 245.617,329.240 245.117,328.800 244.800 C 328.330 244.461,328.000 243.765,328.000 243.112 C 328.000 242.500,327.820 242.000,327.600 242.000 C 327.380 242.000,327.200 241.770,327.200 241.488 C 327.200 241.207,326.840 240.717,326.400 240.400 C 325.960 240.083,325.600 239.503,325.600 239.112 C 325.600 238.720,325.423 238.400,325.208 238.400 C 324.992 238.400,324.694 237.919,324.547 237.330 C 324.233 236.081,320.300 232.000,319.409 232.000 C 319.074 232.000,318.800 231.722,318.800 231.383 C 318.800 230.538,312.534 224.400,311.671 224.400 C 311.289 224.400,310.717 224.040,310.400 223.600 C 310.083 223.160,309.515 222.800,309.139 222.800 C 308.762 222.800,308.340 222.440,308.200 222.000 C 308.060 221.560,307.681 221.200,307.356 221.200 C 307.031 221.200,305.341 219.760,303.600 218.000 C 301.859 216.240,300.196 214.800,299.905 214.800 C 299.615 214.800,299.117 214.440,298.800 214.000 C 298.461 213.530,297.765 213.200,297.112 213.200 C 296.500 213.200,296.000 213.020,296.000 212.800 C 296.000 212.580,295.640 212.400,295.200 212.400 C 294.760 212.400,294.400 212.220,294.400 212.000 C 294.400 211.780,293.860 211.600,293.200 211.600 C 292.540 211.600,292.000 211.420,292.000 211.200 C 292.000 210.980,291.550 210.800,291.000 210.800 C 290.450 210.800,290.000 210.620,290.000 210.400 C 290.000 210.180,289.460 210.000,288.800 210.000 C 288.140 210.000,287.600 209.820,287.600 209.600 C 287.600 209.380,287.060 209.200,286.400 209.200 C 285.740 209.200,285.200 209.036,285.200 208.835 C 285.200 208.634,284.480 208.349,283.600 208.200 C 282.720 208.051,282.000 207.766,282.000 207.565 C 282.000 207.364,281.640 207.200,281.200 207.200 C 280.760 207.200,280.400 207.020,280.400 206.800 C 280.400 206.580,280.580 206.400,280.800 206.400 C 281.020 206.400,281.200 206.080,281.200 205.688 C 281.200 205.297,281.560 204.717,282.000 204.400 C 282.440 204.083,282.800 203.503,282.800 203.112 C 282.800 202.720,282.980 202.400,283.200 202.400 C 283.420 202.400,283.600 201.860,283.600 201.200 C 283.600 200.540,283.780 200.000,284.000 200.000 C 284.220 200.000,284.400 199.640,284.400 199.200 C 284.400 198.760,284.580 198.400,284.800 198.400 C 285.020 198.400,285.200 197.860,285.200 197.200 C 285.200 196.540,285.380 196.000,285.600 196.000 C 285.820 196.000,286.000 195.537,286.000 194.971 C 286.000 193.901,286.811 192.800,287.600 192.800 C 287.851 192.800,288.327 192.530,288.657 192.200 C 288.987 191.870,289.604 191.600,290.029 191.600 C 290.453 191.600,290.800 191.420,290.800 191.200 C 290.800 190.980,291.070 190.800,291.400 190.800 C 291.730 190.800,292.000 190.620,292.000 190.400 C 292.000 190.180,292.360 190.000,292.800 190.000 C 293.240 190.000,293.600 189.820,293.600 189.600 C 293.600 189.380,293.960 189.200,294.400 189.200 C 294.840 189.200,295.200 189.020,295.200 188.800 C 295.200 188.580,295.560 188.400,296.000 188.400 C 296.440 188.400,296.800 188.220,296.800 188.000 C 296.800 187.780,297.120 187.600,297.512 187.600 C 297.903 187.600,298.483 187.240,298.800 186.800 C 299.117 186.360,299.612 186.000,299.899 186.000 C 300.525 186.000,304.000 182.604,304.000 181.992 C 304.000 181.414,305.846 179.600,306.435 179.600 C 306.951 179.600,308.400 178.081,308.400 177.539 C 308.400 177.352,308.676 177.200,309.013 177.200 C 309.646 177.200,312.400 174.680,312.400 174.102 C 312.400 173.923,312.760 173.517,313.200 173.200 C 313.640 172.883,314.000 172.303,314.000 171.912 C 314.000 171.520,314.180 171.200,314.400 171.200 C 314.620 171.200,314.800 170.880,314.800 170.488 C 314.800 170.097,315.160 169.517,315.600 169.200 C 316.040 168.883,316.400 168.386,316.400 168.096 C 316.400 167.806,318.020 165.963,320.000 164.000 C 321.980 162.037,323.600 160.154,323.600 159.815 C 323.600 159.477,323.772 159.200,323.982 159.200 C 324.192 159.200,324.482 158.570,324.626 157.800 C 324.771 157.030,325.049 156.400,325.245 156.400 C 325.440 156.400,325.600 155.680,325.600 154.800 C 325.600 153.920,325.780 153.200,326.000 153.200 C 326.220 153.200,326.400 152.660,326.400 152.000 C 326.400 151.340,326.580 150.800,326.800 150.800 C 327.020 150.800,327.200 150.260,327.200 149.600 C 327.200 148.940,327.380 148.400,327.600 148.400 C 327.820 148.400,328.000 148.040,328.000 147.600 C 328.000 147.160,328.180 146.800,328.400 146.800 C 328.620 146.800,328.800 146.260,328.800 145.600 C 328.800 144.940,328.980 144.400,329.200 144.400 C 329.420 144.400,329.600 144.040,329.600 143.600 C 329.600 143.160,329.780 142.800,330.000 142.800 C 330.220 142.800,330.400 142.530,330.400 142.200 C 330.400 141.870,330.580 141.600,330.800 141.600 C 331.020 141.600,331.200 141.240,331.200 140.800 C 331.200 140.360,331.380 140.000,331.600 140.000 C 331.820 140.000,332.000 139.640,332.000 139.200 C 332.000 138.760,332.180 138.400,332.400 138.400 C 332.620 138.400,332.800 138.040,332.800 137.600 C 332.800 137.160,332.980 136.800,333.200 136.800 C 333.420 136.800,333.600 136.440,333.600 136.000 C 333.600 135.560,333.780 135.200,334.000 135.200 C 334.220 135.200,334.400 134.840,334.400 134.400 C 334.400 133.960,334.580 133.600,334.800 133.600 C 335.020 133.600,335.200 132.880,335.200 132.000 C 335.200 131.120,335.380 130.400,335.600 130.400 C 335.820 130.400,336.000 129.500,336.000 128.400 C 336.000 127.300,336.180 126.400,336.400 126.400 C 336.631 126.400,336.800 125.133,336.800 123.400 C 336.800 121.667,336.969 120.400,337.200 120.400 C 337.456 120.400,337.600 116.733,337.600 110.200 C 337.600 103.667,337.456 100.000,337.200 100.000 C 336.960 100.000,336.800 98.400,336.800 96.000 C 336.800 93.600,336.640 92.000,336.400 92.000 C 336.180 92.000,336.000 91.190,336.000 90.200 C 336.000 89.210,335.820 88.400,335.600 88.400 C 335.380 88.400,335.200 87.680,335.200 86.800 C 335.200 85.920,335.020 85.200,334.800 85.200 C 334.580 85.200,334.400 84.660,334.400 84.000 C 334.400 83.340,334.220 82.800,334.000 82.800 C 333.780 82.800,333.600 82.440,333.600 82.000 C 333.600 81.560,333.420 81.200,333.200 81.200 C 332.980 81.200,332.800 80.912,332.800 80.560 C 332.800 80.209,332.260 79.417,331.600 78.800 C 330.940 78.183,330.400 77.391,330.400 77.040 C 330.400 76.688,330.220 76.400,330.000 76.400 C 329.780 76.400,329.600 76.040,329.600 75.600 C 329.600 75.160,329.420 74.800,329.200 74.800 C 328.980 74.800,328.800 74.530,328.800 74.200 C 328.800 73.870,328.620 73.600,328.400 73.600 C 328.180 73.600,328.000 73.060,328.000 72.400 C 328.000 71.740,327.820 71.200,327.600 71.200 C 327.380 71.200,327.200 70.660,327.200 70.000 C 327.200 69.340,327.020 68.800,326.800 68.800 C 326.580 68.800,326.400 68.260,326.400 67.600 C 326.400 66.940,326.220 66.400,326.000 66.400 C 325.780 66.400,325.600 65.860,325.600 65.200 C 325.600 64.540,325.443 64.000,325.252 64.000 C 325.060 64.000,324.784 63.100,324.638 62.000 C 324.492 60.900,324.199 60.000,323.986 60.000 C 323.774 60.000,323.600 59.640,323.600 59.200 C 323.600 58.760,323.420 58.400,323.200 58.400 C 322.980 58.400,322.800 58.130,322.800 57.800 C 322.800 57.470,322.620 57.200,322.400 57.200 C 322.180 57.200,322.000 56.923,322.000 56.585 C 322.000 56.246,320.380 54.363,318.400 52.400 C 316.420 50.437,314.800 48.626,314.800 48.376 C 314.800 48.126,314.260 47.417,313.600 46.800 C 312.940 46.183,312.400 45.391,312.400 45.040 C 312.400 44.688,312.220 44.400,312.000 44.400 C 311.780 44.400,311.600 44.080,311.600 43.688 C 311.600 43.297,311.215 42.712,310.745 42.388 C 309.457 41.502,308.000 40.013,308.000 39.582 C 308.000 39.372,307.640 39.200,307.200 39.200 C 306.760 39.200,306.400 39.020,306.400 38.800 C 306.400 38.580,306.080 38.400,305.688 38.400 C 305.297 38.400,304.717 38.040,304.400 37.600 C 304.083 37.160,303.587 36.800,303.299 36.800 C 303.010 36.800,300.806 34.820,298.400 32.400 C 295.994 29.980,293.750 28.000,293.413 28.000 C 293.076 28.000,292.800 27.820,292.800 27.600 C 292.800 27.380,292.530 27.200,292.200 27.200 C 291.870 27.200,291.600 27.020,291.600 26.800 C 291.600 26.580,291.060 26.400,290.400 26.400 C 289.740 26.400,289.200 26.220,289.200 26.000 C 289.200 25.780,288.840 25.600,288.400 25.600 C 287.960 25.600,287.600 25.438,287.600 25.239 C 287.600 25.041,286.520 24.753,285.200 24.600 C 283.880 24.447,282.800 24.159,282.800 23.961 C 282.800 23.762,282.260 23.600,281.600 23.600 C 280.940 23.600,280.400 23.420,280.400 23.200 C 280.400 22.980,279.860 22.800,279.200 22.800 C 278.540 22.800,278.000 22.620,278.000 22.400 C 278.000 22.180,277.460 22.000,276.800 22.000 C 276.140 22.000,275.600 21.820,275.600 21.600 C 275.600 21.380,275.330 21.200,275.000 21.200 C 274.670 21.200,274.400 21.020,274.400 20.800 C 274.400 20.580,274.080 20.400,273.688 20.400 C 273.297 20.400,272.717 20.040,272.400 19.600 C 272.083 19.160,271.503 18.800,271.112 18.800 C 270.720 18.800,270.400 18.620,270.400 18.400 C 270.400 18.180,270.040 18.000,269.600 18.000 C 269.160 18.000,268.800 17.820,268.800 17.600 C 268.800 17.378,267.733 17.200,266.400 17.200 C 265.067 17.200,264.000 17.022,264.000 16.800 C 264.000 16.571,262.800 16.400,261.200 16.400 C 259.600 16.400,258.400 16.229,258.400 16.000 C 258.400 15.780,257.770 15.600,257.000 15.600 C 256.230 15.600,255.600 15.780,255.600 16.000 " stroke="none" fill="#e5911f" fill-rule="evenodd"></path><path id="path4" d="M94.400 12.800 C 94.400 13.051,91.933 13.200,87.800 13.200 C 83.667 13.200,81.200 13.349,81.200 13.600 C 81.200 13.820,80.925 14.000,80.589 14.000 C 79.796 14.000,76.400 17.396,76.400 18.189 C 76.400 18.525,76.220 18.800,76.000 18.800 C 75.778 18.800,75.600 19.867,75.600 21.200 C 75.600 22.533,75.422 23.600,75.200 23.600 C 74.935 23.600,74.800 53.133,74.800 111.400 C 74.800 169.667,74.935 199.200,75.200 199.200 C 75.422 199.200,75.600 200.267,75.600 201.600 L 75.600 204.000 78.000 204.000 C 79.333 204.000,80.400 203.822,80.400 203.600 C 80.400 203.358,82.122 203.200,84.767 203.200 C 87.885 203.200,89.191 203.057,89.336 202.700 C 89.489 202.322,89.652 202.347,90.000 202.800 C 90.348 203.253,90.511 203.278,90.664 202.900 C 90.825 202.502,106.675 202.400,168.033 202.400 C 219.211 202.400,245.200 202.265,245.200 202.000 C 245.200 201.780,245.560 201.600,246.000 201.600 C 246.440 201.600,246.800 201.420,246.800 201.200 C 246.800 200.980,247.076 200.800,247.413 200.800 C 248.209 200.800,250.800 198.209,250.800 197.413 C 250.800 197.076,250.980 196.800,251.200 196.800 C 251.420 196.800,251.600 196.260,251.600 195.600 C 251.600 194.940,251.780 194.400,252.000 194.400 C 252.265 194.400,252.400 165.133,252.400 107.400 C 252.400 49.667,252.535 20.400,252.800 20.400 C 253.020 20.400,253.200 19.764,253.200 18.987 C 253.200 17.235,250.998 14.800,249.413 14.800 C 248.856 14.800,248.400 14.620,248.400 14.400 C 248.400 14.180,248.040 14.000,247.600 14.000 C 247.160 14.000,246.800 13.820,246.800 13.600 C 246.800 13.335,223.867 13.200,178.800 13.200 C 133.733 13.200,110.800 13.065,110.800 12.800 C 110.800 12.212,107.311 12.304,107.033 12.900 C 106.847 13.300,106.753 13.300,106.567 12.900 C 106.272 12.270,94.400 12.172,94.400 12.800 M244.400 25.400 C 244.400 25.950,244.580 26.400,244.800 26.400 C 245.020 26.400,245.200 27.120,245.200 28.000 C 245.200 28.880,245.380 29.600,245.600 29.600 C 245.865 29.600,246.000 57.600,246.000 112.800 C 246.000 168.000,245.865 196.000,245.600 196.000 C 245.380 196.000,245.200 196.283,245.200 196.629 C 245.200 196.974,244.943 197.514,244.629 197.829 C 244.314 198.143,243.774 198.400,243.429 198.400 C 243.083 198.400,242.800 198.580,242.800 198.800 C 242.800 199.065,217.667 199.200,168.200 199.200 C 118.733 199.200,93.600 199.065,93.600 198.800 C 93.600 198.580,92.970 198.400,92.200 198.400 C 91.430 198.400,90.800 198.220,90.800 198.000 C 90.800 197.780,89.900 197.600,88.800 197.600 C 87.700 197.600,86.800 197.420,86.800 197.200 C 86.800 196.980,86.260 196.800,85.600 196.800 C 84.940 196.800,84.400 196.620,84.400 196.400 C 84.400 196.180,83.937 196.000,83.371 196.000 C 81.042 196.000,81.200 202.097,81.200 112.400 C 81.200 24.545,81.110 28.800,82.971 28.800 C 83.317 28.800,83.600 28.620,83.600 28.400 C 83.600 28.180,84.140 28.000,84.800 28.000 C 85.460 28.000,86.000 27.820,86.000 27.600 C 86.000 27.380,86.360 27.200,86.800 27.200 C 87.240 27.200,87.600 27.020,87.600 26.800 C 87.600 26.580,88.140 26.400,88.800 26.400 C 89.460 26.400,90.000 26.220,90.000 26.000 C 90.000 25.780,90.360 25.600,90.800 25.600 C 91.240 25.600,91.600 25.432,91.600 25.227 C 91.600 24.539,93.514 24.520,169.100 24.460 L 244.400 24.400 244.400 25.400 " stroke="none" fill="#2c94bc" fill-rule="evenodd"></path></g></svg>